<mxfile host="Electron" agent="Mozilla/5.0 (Windows NT 10.0; Win64; x64) AppleWebKit/537.36 (KHTML, like Gecko) draw.io/24.7.17 Chrome/128.0.6613.36 Electron/32.0.1 Safari/537.36" version="24.7.17">
  <diagram name="Страница — 1" id="vf_dF3HE6lG4VXyOMZKh">
    <mxGraphModel dx="1221" dy="717" grid="1" gridSize="10" guides="1" tooltips="1" connect="1" arrows="1" fold="1" page="1" pageScale="1" pageWidth="1169" pageHeight="1654" math="0" shadow="0">
      <root>
        <mxCell id="0" />
        <mxCell id="1" parent="0" />
        <mxCell id="9XRfJCl_z1yHnnmMF-JZ-4" style="edgeStyle=orthogonalEdgeStyle;rounded=0;orthogonalLoop=1;jettySize=auto;html=1;entryX=0.5;entryY=0;entryDx=0;entryDy=0;" edge="1" parent="1" source="9XRfJCl_z1yHnnmMF-JZ-1" target="9XRfJCl_z1yHnnmMF-JZ-2">
          <mxGeometry relative="1" as="geometry" />
        </mxCell>
        <mxCell id="9XRfJCl_z1yHnnmMF-JZ-1" value="&lt;font color=&quot;#ffff00&quot;&gt;Start&lt;/font&gt;" style="ellipse;whiteSpace=wrap;html=1;" vertex="1" parent="1">
          <mxGeometry x="525" y="10" width="120" height="80" as="geometry" />
        </mxCell>
        <mxCell id="9XRfJCl_z1yHnnmMF-JZ-6" style="edgeStyle=orthogonalEdgeStyle;rounded=0;orthogonalLoop=1;jettySize=auto;html=1;" edge="1" parent="1" source="9XRfJCl_z1yHnnmMF-JZ-2" target="9XRfJCl_z1yHnnmMF-JZ-5">
          <mxGeometry relative="1" as="geometry" />
        </mxCell>
        <mxCell id="9XRfJCl_z1yHnnmMF-JZ-2" value="Input a, b, c, d" style="shape=parallelogram;perimeter=parallelogramPerimeter;whiteSpace=wrap;html=1;fixedSize=1;fillColor=#1ba1e2;fontColor=#ffffff;strokeColor=#006EAF;" vertex="1" parent="1">
          <mxGeometry x="525" y="130" width="120" height="60" as="geometry" />
        </mxCell>
        <mxCell id="9XRfJCl_z1yHnnmMF-JZ-11" style="edgeStyle=orthogonalEdgeStyle;rounded=0;orthogonalLoop=1;jettySize=auto;html=1;" edge="1" parent="1" source="9XRfJCl_z1yHnnmMF-JZ-5" target="9XRfJCl_z1yHnnmMF-JZ-9">
          <mxGeometry relative="1" as="geometry" />
        </mxCell>
        <mxCell id="9XRfJCl_z1yHnnmMF-JZ-5" value="Sum of a,b,c,d" style="shape=parallelogram;perimeter=parallelogramPerimeter;whiteSpace=wrap;html=1;fixedSize=1;fillColor=#1ba1e2;fontColor=#ffffff;strokeColor=#006EAF;" vertex="1" parent="1">
          <mxGeometry x="525" y="230" width="120" height="60" as="geometry" />
        </mxCell>
        <mxCell id="9XRfJCl_z1yHnnmMF-JZ-7" value="&lt;font color=&quot;#ffff00&quot;&gt;End&lt;/font&gt;" style="ellipse;whiteSpace=wrap;html=1;" vertex="1" parent="1">
          <mxGeometry x="525" y="430" width="120" height="80" as="geometry" />
        </mxCell>
        <mxCell id="9XRfJCl_z1yHnnmMF-JZ-12" style="edgeStyle=orthogonalEdgeStyle;rounded=0;orthogonalLoop=1;jettySize=auto;html=1;" edge="1" parent="1" source="9XRfJCl_z1yHnnmMF-JZ-9" target="9XRfJCl_z1yHnnmMF-JZ-7">
          <mxGeometry relative="1" as="geometry" />
        </mxCell>
        <mxCell id="9XRfJCl_z1yHnnmMF-JZ-9" value="Output of sum" style="shape=parallelogram;perimeter=parallelogramPerimeter;whiteSpace=wrap;html=1;fixedSize=1;fillColor=#1ba1e2;fontColor=#ffffff;strokeColor=#006EAF;" vertex="1" parent="1">
          <mxGeometry x="525" y="330" width="120" height="60" as="geometry" />
        </mxCell>
      </root>
    </mxGraphModel>
  </diagram>
</mxfile>
